<?xml version="1.0" encoding="utf-8"?>
<!-- Generator: Adobe Illustrator 24.0.1, SVG Export Plug-In . SVG Version: 6.00 Build 0)  -->
<svg version="1.1" id="Email" xmlns="http://www.w3.org/2000/svg" xmlns:xlink="http://www.w3.org/1999/xlink" x="0px" y="0px"
	 viewBox="0 0 512 512" style="enable-background:new 0 0 512 512;" xml:space="preserve">
<style type="text/css">
	.backgroundEmail{fill:#C23B2D;}
	.iconEmail{fill:#FFFFFF;}
</style>
<circle id="BgEmail" class="backgroundEmail" cx="256" cy="256" r="256"/>
<g id="EmailIcon">
	<g>
		<g>
			<path class="iconEmail" d="M410.4,161.3L315.1,256l95.3,94.7c1.7-3.6,2.8-7.6,2.8-11.9V173.1C413.1,168.9,412.1,164.9,410.4,161.3z"/>
		</g>
	</g>
	<g>
		<g>
			<path class="iconEmail" d="M385.5,145.5h-259c-4.3,0-8.2,1.1-11.9,2.8l121.8,121.2c10.8,10.8,28.3,10.8,39.1,0l121.8-121.2
				C393.8,146.5,389.8,145.5,385.5,145.5z"/>
		</g>
	</g>
	<g>
		<g>
			<path class="iconEmail" d="M101.6,161.3c-1.7,3.6-2.8,7.6-2.8,11.9v165.7c0,4.3,1.1,8.2,2.8,11.9l95.3-94.8L101.6,161.3z"/>
		</g>
	</g>
	<g>
		<g>
			<path class="iconEmail" d="M302,269l-13.5,13.5c-17.9,17.9-47.1,17.9-65.1,0L210,269l-95.3,94.7c3.6,1.7,7.6,2.8,11.9,2.8h259
				c4.3,0,8.2-1.1,11.9-2.8L302,269z"/>
		</g>
	</g>
</g>
</svg>
