<?xml version="1.0" encoding="utf-8"?>
<!-- Generator: Adobe Illustrator 24.0.1, SVG Export Plug-In . SVG Version: 6.00 Build 0)  -->
<svg version="1.1" id="Print" xmlns="http://www.w3.org/2000/svg" xmlns:xlink="http://www.w3.org/1999/xlink" x="0px" y="0px"
	 viewBox="0 0 475.1 475.1" style="enable-background:new 0 0 475.1 475.1;" xml:space="preserve">
<style type="text/css">
	.backgorundPrint{fill:#EEEEEE;}
</style>
<circle id="BgPrint" class="backgorundPrint" cx="237.5" cy="237.5" r="237.5"/>
<g id="PrintIcon">
	<path d="M396.6,222.9c-7.7-7.7-17-11.6-27.8-11.6h-13.1v-52.5c0-5.5-1.4-11.5-4.1-18c-2.7-6.6-6-11.8-9.8-15.6L310.5,94
		c-3.8-3.8-9-7.1-15.6-9.8c-6.6-2.7-12.6-4.1-18-4.1H139.1c-5.5,0-10.1,1.9-13.9,5.7c-3.8,3.8-5.7,8.5-5.7,13.9v111.6h-13.1
		c-10.8,0-20.1,3.9-27.8,11.6c-7.7,7.7-11.6,17-11.6,27.8V336c0,1.8,0.7,3.3,1.9,4.6c1.3,1.3,2.8,1.9,4.6,1.9h45.9v32.8
		c0,5.5,1.9,10.1,5.7,13.9c3.8,3.8,8.5,5.7,13.9,5.7h197c5.5,0,10.1-1.9,13.9-5.7c3.8-3.8,5.7-8.5,5.7-13.9v-32.8h45.9
		c1.8,0,3.3-0.6,4.6-1.9c1.3-1.3,1.9-2.8,1.9-4.6v-85.3C408.2,239.9,404.3,230.6,396.6,222.9z M329.4,368.8H145.7v-52.5h183.8v52.5
		H329.4z M329.4,237.5H145.7V106.3H277v32.8c0,5.5,1.9,10.1,5.7,13.9c3.8,3.8,8.5,5.7,13.9,5.7h32.8V237.5L329.4,237.5z M378,259.9
		c-2.6,2.6-5.7,3.9-9.2,3.9c-3.6,0-6.6-1.3-9.2-3.9s-3.9-5.7-3.9-9.2c0-3.6,1.3-6.6,3.9-9.2c2.6-2.6,5.7-3.9,9.2-3.9
		c3.6,0,6.6,1.3,9.2,3.9c2.6,2.6,3.9,5.7,3.9,9.2S380.6,257.3,378,259.9z"/>
</g>
</svg>
