<?xml version="1.0" encoding="utf-8"?>
<!-- Generator: Adobe Illustrator 24.0.1, SVG Export Plug-In . SVG Version: 6.00 Build 0)  -->
<svg version="1.1" id="Whatsapp" xmlns="http://www.w3.org/2000/svg" xmlns:xlink="http://www.w3.org/1999/xlink" x="0px" y="0px"
	 viewBox="0 0 512 512" style="enable-background:new 0 0 512 512;" xml:space="preserve">
<style type="text/css">
	.iconWhatsapp{fill:#16C60C;}
</style>
<path id="WhatsappIcon" class="iconWhatsapp" d="M256.1,0C114.9,0,0.1,114.8,0,255.9c0,48.4,13.5,95.4,39.1,136.2l6.1,9.7l-25.9,94.4
	l96.9-25.4l9.4,5.5C164.9,499.6,210,512,255.9,512h0.1c141.1,0,255.9-114.8,256-255.9c0-68.4-26.6-132.7-74.9-181S324.5,0,256.1,0z
	 M406.7,365.9c-6.4,18-37.2,34.4-51.9,36.6c-13.3,2-30,2.8-48.5-3c-11.2-3.5-25.5-8.3-43.9-16.2c-77.2-33.3-127.6-111-131.5-116.2
	c-3.8-5.1-31.4-41.7-31.4-79.6s19.9-56.5,26.9-64.2c7.1-7.7,15.4-9.6,20.5-9.6s10.3,0,14.7,0.3c4.7,0.2,11.1-1.8,17.3,13.2
	c6.4,15.4,21.8,53.3,23.7,57.1c1.9,3.9,3.2,8.3,0.6,13.5c-2.6,5.1-11.1,16.2-19.2,26.3c-3.4,4.2-7.9,8-3.4,15.7s19.9,32.9,42.8,53.3
	c29.4,26.2,54.2,34.3,61.9,38.2c7.7,3.8,12.2,3.2,16.7-1.9s19.2-22.5,24.4-30.2c5.1-7.7,10.3-6.4,17.3-3.8
	c7.1,2.6,44.9,21.2,52.6,25c7.7,3.9,12.8,5.8,14.7,9C413.1,332.5,413.1,347.9,406.7,365.9z"/>
</svg>
